<svg width="66" height="66" viewBox="0 0 512 512" fill="none" xmlns="http://www.w3.org/2000/svg">
<path d="M256 0C114.61 0 0 114.62 0 256C0 397.38 114.61 512 256 512C397.39 512 512 397.38 512 256C512 114.62 397.38 0 256 0ZM256 294.4C248.405 294.4 240.981 292.148 234.666 287.928C228.351 283.709 223.429 277.712 220.523 270.695C217.617 263.678 216.856 255.957 218.338 248.509C219.82 241.06 223.477 234.217 228.847 228.847C234.217 223.477 241.06 219.82 248.509 218.338C255.957 216.856 263.678 217.617 270.695 220.523C277.712 223.429 283.709 228.351 287.928 234.666C292.148 240.981 294.4 248.405 294.4 256C294.4 266.184 290.354 275.951 283.153 283.153C275.951 290.354 266.184 294.4 256 294.4V294.4Z" fill="#414141"/>
<path d="M344.48 102.7L312.18 158.7C309.271 163.76 308.165 169.657 309.04 175.427C309.915 181.197 312.721 186.5 317 190.47C330.205 202.71 339.407 218.653 343.4 236.21C344.72 241.86 347.919 246.895 352.474 250.49C357.028 254.085 362.668 256.028 368.47 256H433.08C436.811 255.976 440.493 255.15 443.877 253.577C447.26 252.004 450.265 249.721 452.688 246.884C455.111 244.047 456.895 240.721 457.918 237.133C458.942 233.545 459.181 229.779 458.62 226.09C451.001 174.48 423.949 127.732 383 95.41C380.087 93.0959 376.711 91.4363 373.099 90.5442C369.488 89.652 365.727 89.5483 362.072 90.24C358.417 90.9318 354.953 92.4027 351.918 94.5528C348.882 96.7029 346.345 99.4816 344.48 102.7V102.7Z" fill="url(#paint0_linear)"/>
<path d="M199.82 158.67L167.52 102.67C165.651 99.4552 163.111 96.6805 160.075 94.5344C157.038 92.3882 153.574 90.9209 149.92 90.2322C146.266 89.5434 142.506 89.6494 138.896 90.5428C135.286 91.4362 131.911 93.0962 129 95.41C88.0466 127.731 60.9915 174.479 53.37 226.09C52.8088 229.779 53.0481 233.545 54.0717 237.133C55.0952 240.721 56.879 244.047 59.3019 246.884C61.7247 249.721 64.7299 252.004 68.1133 253.577C71.4966 255.15 75.1789 255.976 78.91 256H143.52C149.321 256.028 154.96 254.087 159.514 250.494C164.068 246.901 167.268 241.868 168.59 236.22C172.583 218.658 181.789 202.711 195 190.47C199.286 186.498 202.096 181.19 202.972 175.413C203.847 169.636 202.736 163.733 199.82 158.67V158.67Z" fill="url(#paint1_linear)"/>
<path d="M256 460.8C281.896 460.828 307.561 455.92 331.62 446.34C335.075 444.969 338.194 442.87 340.766 440.187C343.338 437.503 345.302 434.297 346.525 430.787C347.748 427.277 348.2 423.545 347.853 419.844C347.505 416.143 346.365 412.561 344.51 409.34L312.2 353.34C309.267 348.277 304.701 344.36 299.25 342.232C293.8 340.104 287.787 339.892 282.2 341.63C265.132 346.882 246.878 346.882 229.81 341.63C224.223 339.892 218.211 340.104 212.76 342.232C207.309 344.36 202.743 348.277 199.81 353.34L167.5 409.34C165.645 412.561 164.505 416.143 164.157 419.844C163.81 423.545 164.263 427.277 165.485 430.787C166.708 434.297 168.672 437.503 171.244 440.187C173.816 442.87 176.935 444.969 180.39 446.34C204.446 455.919 230.107 460.826 256 460.8Z" fill="url(#paint2_linear)"/>
<defs>
<linearGradient id="paint0_linear" x1="383.832" y1="89.7883" x2="383.832" y2="256" gradientUnits="userSpaceOnUse">
<stop stop-color="#0CB093"/>
<stop stop-color="#0CB093"/>
<stop stop-color="#92FE9D" stop-opacity="0"/>
<stop stop-color="#92FE9D" stop-opacity="0"/>
<stop offset="0.0001" stop-color="#0EB092"/>
<stop offset="1" stop-color="#7BB541"/>
</linearGradient>
<linearGradient id="paint1_linear" x1="128.169" y1="89.7839" x2="128.169" y2="256" gradientUnits="userSpaceOnUse">
<stop offset="0.0001" stop-color="#0FB191"/>
<stop offset="1" stop-color="#82B63C"/>
</linearGradient>
<linearGradient id="paint2_linear" x1="256.005" y1="340.465" x2="256.005" y2="460.8" gradientUnits="userSpaceOnUse">
<stop stop-color="#01B09B"/>
<stop offset="1" stop-color="#96C93D" stop-opacity="0.90625"/>
</linearGradient>
</defs>
</svg>
