<svg width="23" height="22" viewBox="0 0 23 22" fill="none" xmlns="http://www.w3.org/2000/svg">
<path d="M11.2047 0C5.13271 0 0.204712 4.928 0.204712 11C0.204712 17.072 5.13271 22 11.2047 22C17.2767 22 22.2047 17.072 22.2047 11C22.2047 4.928 17.2767 0 11.2047 0ZM11.2047 3.3C13.0307 3.3 14.5047 4.774 14.5047 6.6C14.5047 8.426 13.0307 9.9 11.2047 9.9C9.37871 9.9 7.90471 8.426 7.90471 6.6C7.90471 4.774 9.37871 3.3 11.2047 3.3ZM11.2047 18.92C8.45471 18.92 6.02371 17.512 4.60471 15.378C4.63771 13.189 9.00471 11.99 11.2047 11.99C13.3937 11.99 17.7717 13.189 17.8047 15.378C16.3857 17.512 13.9547 18.92 11.2047 18.92Z" fill="white"/>
</svg>
