<?xml version="1.0" standalone="no"?><svg xmlns="http://www.w3.org/2000/svg" viewBox="0 0 1440 320"><path fill="#604ED4" fill-opacity="1" d="M0,32L40,64C80,96,160,160,240,176C320,192,400,160,480,154.7C560,149,640,171,720,197.3C800,224,880,256,960,234.7C1040,213,1120,139,1200,128C1280,117,1360,171,1400,197.3L1440,224L1440,320L1400,320C1360,320,1280,320,1200,320C1120,320,1040,320,960,320C880,320,800,320,720,320C640,320,560,320,480,320C400,320,320,320,240,320C160,320,80,320,40,320L0,320Z"></path></svg>